<svg width="12" height="12" viewBox="0 0 12 12" fill="none" xmlns="http://www.w3.org/2000/svg">
<path d="M7.09939 5.99997L11.772 1.32726C12.076 1.02332 12.076 0.531895 11.772 0.227955C11.468 -0.075985 10.9766 -0.075985 10.6726 0.227955L5.99994 4.90066L1.32737 0.227955C1.02329 -0.075985 0.532002 -0.075985 0.228062 0.227955C-0.0760207 0.531895 -0.0760207 1.02332 0.228062 1.32726L4.90063 5.99997L0.228062 10.6727C-0.0760207 10.9766 -0.0760207 11.468 0.228062 11.772C0.379534 11.9236 0.578696 11.9998 0.777717 11.9998C0.976737 11.9998 1.17576 11.9236 1.32737 11.772L5.99994 7.09928L10.6726 11.772C10.8243 11.9236 11.0233 11.9998 11.2223 11.9998C11.4213 11.9998 11.6203 11.9236 11.772 11.772C12.076 11.468 12.076 10.9766 11.772 10.6727L7.09939 5.99997Z" fill="black"/>
</svg>
