<svg width="102" height="102" viewBox="0 0 102 102" fill="none" xmlns="http://www.w3.org/2000/svg">
<rect width="102" height="102" rx="12" fill="white"/>
<path fill-rule="evenodd" clip-rule="evenodd" d="M72.2258 28.8905C72.6134 28.5031 73.2416 28.5032 73.629 28.8908C79.6293 34.8933 83 43.0331 83 51.5203C83 60.0075 79.6293 68.1473 73.629 74.1499C73.2416 74.5374 72.6134 74.5375 72.2258 74.1501C71.8383 73.7627 71.8381 73.1345 72.2255 72.7469C77.8538 67.1165 81.0156 59.4814 81.0156 51.5203C81.0156 43.5592 77.8538 35.9241 72.2255 30.2937C71.8381 29.9061 71.8383 29.2779 72.2258 28.8905ZM29.7829 28.8909C30.1702 29.2786 30.1699 29.9068 29.7822 30.2941C26.9931 33.0807 24.7806 36.3896 23.271 40.0317C21.7614 43.6738 20.9844 47.5777 20.9844 51.5203C20.9844 55.4629 21.7614 59.3668 23.271 63.0089C24.7806 66.651 26.9931 69.9599 29.7822 72.7465C30.1699 73.1338 30.1702 73.762 29.7829 74.1497C29.3955 74.5373 28.7673 74.5376 28.3796 74.1503C25.4061 71.1795 23.0472 67.6517 21.4378 63.7687C19.8284 59.8857 19 55.7236 19 51.5203C19 47.317 19.8284 43.1549 21.4378 39.2719C23.0472 35.3889 25.4061 31.8612 28.3796 28.8903C28.7673 28.503 29.3955 28.5033 29.7829 28.8909ZM36.0435 35.1517C36.4309 35.5392 36.4308 36.1675 36.0433 36.5549C34.0783 38.5193 32.5195 40.8516 31.456 43.4186C30.3925 45.9855 29.8451 48.7369 29.8451 51.5154C29.8451 54.2939 30.3925 57.0453 31.456 59.6122C32.5195 62.1792 34.0783 64.5115 36.0433 66.4759C36.4308 66.8633 36.4309 67.4916 36.0435 67.8791C35.6561 68.2667 35.0278 68.2667 34.6403 67.8793C32.4909 65.7306 30.786 63.1795 29.6227 60.3718C28.4594 57.564 27.8607 54.5546 27.8607 51.5154C27.8607 48.4762 28.4594 45.4668 29.6227 42.659C30.786 39.8513 32.4909 37.3002 34.6403 35.1515C35.0278 34.7641 35.6561 34.7642 36.0435 35.1517ZM65.9646 35.1517C66.352 34.7642 66.9803 34.7641 67.3678 35.1515C69.5172 37.3002 71.2222 39.8513 72.3854 42.659C73.5487 45.4668 74.1474 48.4762 74.1474 51.5154C74.1474 54.5546 73.5487 57.564 72.3854 60.3718C71.2222 63.1795 69.5172 65.7306 67.3678 67.8793C66.9803 68.2667 66.352 68.2667 65.9646 67.8791C65.5772 67.4916 65.5773 66.8633 65.9648 66.4759C67.9298 64.5115 69.4886 62.1792 70.5521 59.6122C71.6156 57.0453 72.163 54.2939 72.163 51.5154C72.163 48.7369 71.6156 45.9855 70.5521 43.4186C69.4886 40.8516 67.9298 38.5193 65.9648 36.5549C65.5773 36.1675 65.5772 35.5392 65.9646 35.1517ZM42.2644 41.4219C42.6521 41.8091 42.6525 42.4374 42.2652 42.8251C39.9608 45.132 38.6664 48.2594 38.6664 51.5202C38.6664 54.7809 39.9608 57.9083 42.2652 60.2153C42.6525 60.603 42.6521 61.2312 42.2644 61.6185C41.8767 62.0058 41.2485 62.0054 40.8612 61.6177C38.1851 58.9387 36.6819 55.3069 36.6819 51.5202C36.6819 47.7335 38.1851 44.1017 40.8612 41.4226C41.2485 41.0349 41.8767 41.0346 42.2644 41.4219ZM59.7125 41.4234C60.0993 41.0353 60.7276 41.0342 61.1157 41.4211C62.4448 42.7457 63.4994 44.3196 64.2189 46.0527C64.9385 47.7857 65.3089 49.6437 65.3089 51.5202C65.3089 53.3967 64.9385 55.2547 64.2189 56.9877C63.4994 58.7207 62.4448 60.2947 61.1157 61.6193C60.7276 62.0061 60.0993 62.0051 59.7125 61.6169C59.3257 61.2288 59.3267 60.6006 59.7149 60.2137C60.859 59.0735 61.7668 57.7186 62.3862 56.2267C63.0056 54.7349 63.3245 53.1355 63.3245 51.5202C63.3245 49.9049 63.0056 48.3054 62.3862 46.8136C61.7668 45.3218 60.859 43.9669 59.7149 42.8266C59.3267 42.4398 59.3257 41.8116 59.7125 41.4234ZM50.9992 48.0874C49.1031 48.0874 47.5661 49.6244 47.5661 51.5204C47.5661 53.4165 49.1031 54.9535 50.9992 54.9535C52.8952 54.9535 54.4322 53.4165 54.4322 51.5204C54.4322 49.6244 52.8952 48.0874 50.9992 48.0874ZM45.5816 51.5204C45.5816 48.5284 48.0071 46.1029 50.9992 46.1029C53.9912 46.1029 56.4167 48.5284 56.4167 51.5204C56.4167 54.5125 53.9912 56.938 50.9992 56.938C48.0071 56.938 45.5816 54.5125 45.5816 51.5204Z" fill="#4FA67C"/>
</svg>
