<svg width="130" height="32" viewBox="0 0 130 32" fill="none" xmlns="http://www.w3.org/2000/svg">
<path fill-rule="evenodd" clip-rule="evenodd" d="M14.4059 0.015335C18.1686 -0.156174 21.8579 1.11593 24.748 3.58134L25.0014 3.79948L23.6367 5.19248L23.423 5.01173C20.8996 2.89128 17.6931 1.80587 14.4285 1.96703C11.1639 2.12819 8.07499 3.52437 5.76385 5.88348C3.45271 8.24259 2.08491 11.3956 1.92703 14.728C1.76914 18.0604 2.83249 21.3334 4.90982 23.9091L5.0869 24.1273L3.9573 25.2803L3.72222 25.5203L3.50852 25.2616C1.09324 22.3116 -0.152998 18.5457 0.0150232 14.7049C0.183045 10.8641 1.75316 7.22662 4.41642 4.50808C7.07968 1.78955 10.6432 0.186844 14.4059 0.015335ZM10.5971 7.94678C11.9375 7.1071 13.4791 6.66187 15.0518 6.66024C16.8528 6.66555 18.6057 7.25364 20.0586 8.33995L20.3456 8.55497L18.9657 9.96355L18.7581 9.81708C17.4882 8.9471 15.9617 8.55424 14.4396 8.70566C12.9174 8.85709 11.494 9.54338 10.4125 10.6473C9.33107 11.7512 8.65874 13.2041 8.5104 14.7579C8.36206 16.3117 8.74691 17.8698 9.59921 19.1661L9.7427 19.378L8.36581 20.7834L8.15516 20.4874C7.23125 19.1883 6.67702 17.6538 6.55368 16.0535C6.43034 14.4531 6.74268 12.8491 7.45622 11.4185C8.16975 9.98793 9.25672 8.78646 10.5971 7.94678Z" fill="#B5B5B5"/>
<path fill-rule="evenodd" clip-rule="evenodd" d="M26.6623 5.48853L26.876 5.74718C29.3203 8.69387 30.5901 12.4708 30.4334 16.3286C30.2767 20.1864 28.7049 23.8431 26.03 26.5732C23.3551 29.3032 19.7726 30.907 15.9932 31.0664C12.2138 31.2258 8.51379 29.9291 5.62737 27.4337L5.37398 27.2155L6.73865 25.8225L6.95236 26.0033C9.47457 28.1378 12.6864 29.2345 15.9592 29.0787C19.2319 28.9229 22.3299 27.5259 24.6466 25.1611C26.9633 22.7964 28.3319 19.6341 28.4845 16.2934C28.6371 12.9528 27.5627 9.67423 25.4716 7.09966L25.2945 6.88152L26.6623 5.48853ZM18.6438 23.7122C17.6034 24.1546 16.4872 24.3815 15.3602 24.3797C13.5457 24.3794 11.7787 23.7876 10.3167 22.6906L10.0297 22.4756L11.4066 21.067L11.6173 21.2135C12.8876 22.1118 14.4266 22.5265 15.9658 22.385C17.505 22.2436 18.9467 21.5552 20.0395 20.4397C21.1322 19.3243 21.8067 17.8526 21.9453 16.2815C22.0838 14.7103 21.6776 13.1394 20.7975 11.8427L20.654 11.6277L22.0309 10.2222L22.2416 10.5151C23.4413 12.1892 24.0175 14.2447 23.867 16.3132C23.7165 18.3816 22.8491 20.3277 21.4203 21.8025C20.6279 22.6206 19.6841 23.2697 18.6438 23.7122Z" fill="#FBCC0B"/>
<path fill-rule="evenodd" clip-rule="evenodd" d="M77.1977 24.3938C77.2607 24.2211 77.2888 24.0371 77.2802 23.853V4.74996C77.2888 4.56585 77.2607 4.38186 77.1977 4.20915C77.1346 4.03644 77.0378 3.87859 76.9132 3.74518C76.7886 3.61176 76.6388 3.50555 76.4728 3.43298C76.3068 3.36042 76.1281 3.323 75.9476 3.323C75.767 3.323 75.5883 3.36042 75.4223 3.43298C75.2563 3.50555 75.1065 3.61176 74.9819 3.74518C74.8573 3.87859 74.7605 4.03644 74.6975 4.20915C74.6344 4.38186 74.6063 4.56585 74.6149 4.74996V23.853C74.6063 24.0371 74.6344 24.2211 74.6975 24.3938C74.7605 24.5665 74.8573 24.7244 74.9819 24.8578C75.1065 24.9912 75.2563 25.0974 75.4223 25.17C75.5883 25.2426 75.767 25.28 75.9476 25.28C76.1281 25.28 76.3068 25.2426 76.4728 25.17C76.6388 25.0974 76.7886 24.9912 76.9132 24.8578C77.0378 24.7244 77.1346 24.5665 77.1977 24.3938ZM47.407 22.7779C50.0722 22.7779 51.4766 21.1325 51.4766 19.459C51.5071 17.4272 49.7791 16.5297 48.0512 16.0809L45.4439 15.4234C41.1698 14.3483 40.5226 11.8053 40.5226 10.0415C40.5226 6.57303 43.6274 4.24202 47.0528 4.24202C50.2737 4.24202 52.5879 5.94665 53.3206 8.60487C53.3808 8.82923 53.4106 9.06097 53.4091 9.29358C53.4091 9.95113 53.0855 10.5401 52.0627 10.5401C51.7764 10.5568 51.4934 10.4701 51.2635 10.2952C51.0335 10.1202 50.8711 9.86825 50.8049 9.5834C50.3073 7.66998 48.8724 6.89401 47.0254 6.89401C45.0623 6.89401 43.2489 8.11873 43.2489 10.0103C43.2489 10.9078 43.5725 12.251 46.1186 12.8805L48.7533 13.538C52.2093 14.4044 54.1998 16.377 54.1998 19.1879C54.1998 22.5068 51.7391 25.3769 47.4039 25.3769C43.8595 25.3769 41.4873 23.4323 40.6691 20.8022C40.6131 20.6077 40.5834 20.4064 40.5806 20.2038C40.5788 20.0268 40.6131 19.8513 40.6813 19.6886C40.7494 19.5258 40.85 19.3792 40.9766 19.2582C41.1032 19.1372 41.253 19.0444 41.4166 18.9856C41.5802 18.9268 41.754 18.9034 41.9269 18.9168C42.2073 18.9263 42.4773 19.0274 42.6971 19.2052C42.9169 19.383 43.075 19.6282 43.1481 19.9047C43.5694 21.4317 45.2119 22.7779 47.407 22.7779ZM56.8375 18.0535C56.8375 13.6284 60.089 10.8174 63.9845 10.8174C67.8801 10.8174 71.159 13.6221 71.159 18.0535C71.159 22.4849 67.8801 25.3769 63.9845 25.3769C60.089 25.3769 56.8375 22.4787 56.8375 18.0535ZM68.4938 18.0535C68.4938 15.2488 66.4422 13.4788 63.9845 13.4788C61.5269 13.4788 59.4875 15.2301 59.4875 18.0535C59.4875 20.8769 61.5391 22.7467 63.9967 22.7467C66.4544 22.7467 68.4938 20.8956 68.4938 18.0535ZM92.4809 22.9275C91.565 24.5106 89.5805 25.38 87.6786 25.38C83.9295 25.38 80.7361 22.5099 80.7361 18.0847C80.7361 13.6595 83.9295 10.8205 87.6786 10.8205C89.5836 10.8205 91.5741 11.6277 92.4809 13.2108V12.3444C92.4722 12.1603 92.5003 11.9763 92.5634 11.8036C92.6264 11.6309 92.7232 11.4731 92.8478 11.3396C92.9724 11.2062 93.1222 11.1 93.2882 11.0275C93.4542 10.9549 93.6329 10.9175 93.8135 10.9175C93.994 10.9175 94.1727 10.9549 94.3387 11.0275C94.5047 11.1 94.6546 11.2062 94.7791 11.3396C94.9037 11.4731 95.0005 11.6309 95.0636 11.8036C95.1267 11.9763 95.1547 12.1603 95.1461 12.3444V23.853C95.1547 24.0371 95.1267 24.2211 95.0636 24.3938C95.0005 24.5665 94.9037 24.7244 94.7791 24.8578C94.6546 24.9912 94.5047 25.0974 94.3387 25.17C94.1727 25.2426 93.994 25.28 93.8135 25.28C93.6329 25.28 93.4542 25.2426 93.2882 25.17C93.1222 25.0974 92.9724 24.9912 92.8478 24.8578C92.7232 24.7244 92.6264 24.5665 92.5634 24.3938C92.5003 24.2211 92.4722 24.0371 92.4809 23.853V22.9275ZM87.9014 13.4819C85.4407 13.4819 83.4502 15.2769 83.4502 18.0567C83.4502 20.8364 85.4407 22.7311 87.9014 22.7311C90.3621 22.7311 92.4412 21.0265 92.4412 18.0567C92.4412 15.0868 90.1087 13.4788 87.9136 13.4788L87.9014 13.4819ZM102.031 19.995C102.031 16.2897 103.145 13.4196 105.78 13.4196C105.99 13.4181 106.2 13.4317 106.408 13.4601C107.324 13.5504 108.094 13.3697 108.24 12.5034C108.472 11.0387 106.833 10.8299 105.838 10.8299C104.052 10.8299 102.733 11.8053 102.031 14.2578V12.3444C102.039 12.1603 102.011 11.9763 101.948 11.8036C101.885 11.6309 101.788 11.4731 101.664 11.3396C101.539 11.2062 101.389 11.1 101.223 11.0274C101.057 10.9549 100.878 10.9175 100.698 10.9175C100.517 10.9175 100.339 10.9549 100.173 11.0274C100.007 11.1 99.8568 11.2062 99.7322 11.3396C99.6076 11.4731 99.5109 11.6309 99.4478 11.8036C99.3847 11.9763 99.3566 12.1603 99.3653 12.3444V23.853C99.3566 24.0371 99.3847 24.2211 99.4478 24.3938C99.5109 24.5665 99.6076 24.7244 99.7322 24.8578C99.8568 24.9912 100.007 25.0974 100.173 25.17C100.339 25.2426 100.517 25.28 100.698 25.28C100.878 25.28 101.057 25.2426 101.223 25.17C101.389 25.0974 101.539 24.9912 101.664 24.8578C101.788 24.7244 101.885 24.5665 101.948 24.3938C102.011 24.2211 102.039 24.0371 102.031 23.853V19.995ZM113.336 23.853C113.344 24.0371 113.316 24.2211 113.253 24.3938C113.19 24.5665 113.093 24.7244 112.969 24.8578C112.844 24.9912 112.694 25.0974 112.528 25.17C112.362 25.2426 112.184 25.28 112.003 25.28C111.822 25.28 111.644 25.2426 111.478 25.17C111.312 25.0974 111.162 24.9912 111.037 24.8578C110.913 24.7244 110.816 24.5665 110.753 24.3938C110.69 24.2211 110.662 24.0371 110.67 23.853V4.74996C110.662 4.56585 110.69 4.38186 110.753 4.20915C110.816 4.03644 110.913 3.87859 111.037 3.74518C111.162 3.61176 111.312 3.50555 111.478 3.43298C111.644 3.36042 111.822 3.323 112.003 3.323C112.184 3.323 112.362 3.36042 112.528 3.43298C112.694 3.50555 112.844 3.61176 112.969 3.74518C113.093 3.87859 113.19 4.03644 113.253 4.20915C113.316 4.38186 113.344 4.56585 113.336 4.74996V23.853ZM126.485 11.8022L122.684 21.2229L118.901 11.8988C118.786 11.5564 118.543 11.2738 118.226 11.1118C117.908 10.9499 117.541 10.9214 117.204 11.0325C116.502 11.2382 116.178 12.1076 116.413 12.7963L121.215 24.6664L119.048 30.1075C118.971 30.2684 118.927 30.4436 118.918 30.6224C118.91 30.8012 118.938 30.9799 118.999 31.1475C119.061 31.3151 119.156 31.4681 119.277 31.597C119.399 31.726 119.545 31.8282 119.707 31.8975C119.869 31.9668 120.042 32.0016 120.218 31.9999C120.393 31.9981 120.566 31.9598 120.727 31.8874C120.887 31.8149 121.031 31.7097 121.151 31.5784C121.27 31.447 121.361 31.2922 121.42 31.1234L128.915 12.8181C128.988 12.656 129.028 12.4804 129.032 12.302C129.035 12.1237 129.004 11.9464 128.938 11.7811C128.872 11.6158 128.774 11.4661 128.649 11.3411C128.524 11.2161 128.376 11.1185 128.213 11.0543C127.886 10.9232 127.522 10.9281 127.199 11.068C126.876 11.2078 126.619 11.4714 126.485 11.8022Z" fill="#2D2D2D"/>
</svg>
