<svg width="65" height="50" viewBox="0 0 65 50" fill="none" xmlns="http://www.w3.org/2000/svg">
<path fill-rule="evenodd" clip-rule="evenodd" d="M17.1957 44.6529C17.2719 43.5292 16.469 42.4798 15.4025 42.3091L2.72581 40.2797C1.65925 40.109 0.732878 40.8815 0.656694 42.0052C0.58051 43.129 1.38337 44.1783 2.44992 44.3491L15.1266 46.3784C16.1931 46.5492 17.1195 45.7766 17.1957 44.6529Z" fill="#FBCC0B"/>
<path fill-rule="evenodd" clip-rule="evenodd" d="M10.4551 15.551C9.85554 16.4388 10.0875 17.7335 10.9731 18.4428L21.4861 26.8622C22.3717 27.5714 23.5756 27.4267 24.1752 26.5388C24.7747 25.651 24.5428 24.3563 23.6571 23.647L13.1442 15.2276C12.2585 14.5183 11.0546 14.6631 10.4551 15.551Z" fill="#FBCC0B"/>
<path fill-rule="evenodd" clip-rule="evenodd" d="M32.7045 1.10665C31.7121 1.44708 31.2312 2.60159 31.6304 3.68531L36.2913 16.3371C36.6906 17.4208 37.8188 18.0234 38.8113 17.6829C39.8038 17.3425 40.2847 16.188 39.8854 15.1043L35.2245 2.45251C34.8252 1.36878 33.697 0.766226 32.7045 1.10665Z" fill="#FBCC0B"/>
<path fill-rule="evenodd" clip-rule="evenodd" d="M61.6511 2.02392C60.6088 1.6833 59.5712 2.28652 59.3336 3.37125L56.5932 15.8803C56.3555 16.965 57.0078 18.1205 58.0502 18.4611C59.0925 18.8017 60.1301 18.1985 60.3677 17.1138L63.1081 4.60475C63.3458 3.52002 62.6935 2.36454 61.6511 2.02392Z" fill="#FBCC0B"/>
</svg>
